# xmcd CD database file
#
# Track frame offsets:
#	150
#	20317
#	38940
#	64590
#	87582
#	113645
#	136325
#	159565
#	186792
#	208670
#	234050
#	257057
#
# Disc length: 3734 seconds
#
# Revision: 0
# Processed by: cddbd v1.5.1PL0 Copyright (c) Steve Scherf et al.
# Submitted via: CDex 1.51
#
DISCID=990e940c
DTITLE=やしきたかじん - Best☆Best
DYEAR=2004
DGENRE=New Age
TTITLE0=東京
TTITLE1=あんた (New Version '96)
TTITLE2=やっぱ好きやねん (New Version '96)
TTITLE3=ICHIZU (New Version '96)
TTITLE4=明日になれば (New Version '96)
TTITLE5=未練〜STILL〜 (New Version '96)
TTITLE6=泣いてもいいか
TTITLE7=もしも夢が叶うならば
TTITLE8=なめとんか (New Version '96)
TTITLE9=大阪恋物語 (New Version '96)
TTITLE10=エゴイズム
TTITLE11=たった独りのアンコール
EXTD=YEAR: 2004
EXTT0=
EXTT1=
EXTT2=
EXTT3=
EXTT4=
EXTT5=
EXTT6=
EXTT7=
EXTT8=
EXTT9=
EXTT10=
EXTT11=
PLAYORDER=
